%TF.GenerationSoftware,KiCad,Pcbnew,9.0.3*%
%TF.CreationDate,2026-05-04T20:02:20-06:00*%
%TF.ProjectId,esp32-proximity-monitor,65737033-322d-4707-926f-78696d697479,rev?*%
%TF.SameCoordinates,Original*%
%TF.FileFunction,Copper,L1,Top*%
%TF.FilePolarity,Positive*%
%FSLAX46Y46*%
G04 Gerber Fmt 4.6, Leading zero omitted, Abs format (unit mm)*
G04 Created by KiCad (PCBNEW 9.0.3) date 2026-05-04 20:02:20*
%MOMM*%
%LPD*%
G01*
G04 APERTURE LIST*
%TA.AperFunction,SMDPad,CuDef*%
%ADD10R,1.500000X0.900000*%
%TD*%
%TA.AperFunction,SMDPad,CuDef*%
%ADD11R,0.900000X1.500000*%
%TD*%
%TA.AperFunction,SMDPad,CuDef*%
%ADD12R,1.050000X1.050000*%
%TD*%
%TA.AperFunction,HeatsinkPad*%
%ADD13C,0.600000*%
%TD*%
%TA.AperFunction,HeatsinkPad*%
%ADD14R,4.200000X4.200000*%
%TD*%
%TA.AperFunction,ComponentPad*%
%ADD15R,2.000000X2.000000*%
%TD*%
%TA.AperFunction,ComponentPad*%
%ADD16C,2.000000*%
%TD*%
%TA.AperFunction,ComponentPad*%
%ADD17C,1.530000*%
%TD*%
%TA.AperFunction,Conductor*%
%ADD18C,0.200000*%
%TD*%
G04 APERTURE END LIST*
D10*
%TO.P,U1,1,GND*%
%TO.N,GND*%
X89870000Y-66965000D03*
%TO.P,U1,2,VDD*%
%TO.N,+5V*%
X89870000Y-65695000D03*
%TO.P,U1,3,EN*%
%TO.N,unconnected-(U1-EN-Pad3)*%
X89870000Y-64425000D03*
%TO.P,U1,4,SENSOR_VP*%
%TO.N,unconnected-(U1-SENSOR_VP-Pad4)*%
X89870000Y-63155000D03*
%TO.P,U1,5,SENSOR_VN*%
%TO.N,unconnected-(U1-SENSOR_VN-Pad5)*%
X89870000Y-61885000D03*
%TO.P,U1,6,IO34*%
%TO.N,unconnected-(U1-IO34-Pad6)*%
X89870000Y-60615000D03*
%TO.P,U1,7,IO35*%
%TO.N,unconnected-(U1-IO35-Pad7)*%
X89870000Y-59345000D03*
%TO.P,U1,8,IO32*%
%TO.N,unconnected-(U1-IO32-Pad8)*%
X89870000Y-58075000D03*
%TO.P,U1,9,IO33*%
%TO.N,unconnected-(U1-IO33-Pad9)*%
X89870000Y-56805000D03*
%TO.P,U1,10,IO25*%
%TO.N,unconnected-(U1-IO25-Pad10)*%
X89870000Y-55535000D03*
%TO.P,U1,11,IO26*%
%TO.N,unconnected-(U1-IO26-Pad11)*%
X89870000Y-54265000D03*
%TO.P,U1,12,IO27*%
%TO.N,unconnected-(U1-IO27-Pad12)*%
X89870000Y-52995000D03*
%TO.P,U1,13,IO14*%
%TO.N,unconnected-(U1-IO14-Pad13)*%
X89870000Y-51725000D03*
%TO.P,U1,14,IO12*%
%TO.N,unconnected-(U1-IO12-Pad14)*%
X89870000Y-50455000D03*
D11*
%TO.P,U1,15,GND*%
%TO.N,GND*%
X86830000Y-49205000D03*
%TO.P,U1,16,IO13*%
%TO.N,/BUZZER*%
X85560000Y-49205000D03*
%TO.P,U1,17,SHD/SD2*%
%TO.N,unconnected-(U1-SHD{slash}SD2-Pad17)*%
X84290000Y-49205000D03*
%TO.P,U1,18,SWP/SD3*%
%TO.N,unconnected-(U1-SWP{slash}SD3-Pad18)*%
X83020000Y-49205000D03*
%TO.P,U1,19,SCS/CMD*%
%TO.N,unconnected-(U1-SCS{slash}CMD-Pad19)*%
X81750000Y-49205000D03*
%TO.P,U1,20,SCK/CLK*%
%TO.N,unconnected-(U1-SCK{slash}CLK-Pad20)*%
X80480000Y-49205000D03*
%TO.P,U1,21,SDO/SD0*%
%TO.N,unconnected-(U1-SDO{slash}SD0-Pad21)*%
X79210000Y-49205000D03*
%TO.P,U1,22,SDI/SD1*%
%TO.N,unconnected-(U1-SDI{slash}SD1-Pad22)*%
X77940000Y-49205000D03*
%TO.P,U1,23,IO15*%
%TO.N,unconnected-(U1-IO15-Pad23)*%
X76670000Y-49205000D03*
%TO.P,U1,24,IO2*%
%TO.N,unconnected-(U1-IO2-Pad24)*%
X75400000Y-49205000D03*
D10*
%TO.P,U1,25,IO0*%
%TO.N,unconnected-(U1-IO0-Pad25)*%
X72370000Y-50455000D03*
%TO.P,U1,26,IO4*%
%TO.N,unconnected-(U1-IO4-Pad26)*%
X72370000Y-51725000D03*
%TO.P,U1,27,IO16*%
%TO.N,unconnected-(U1-IO16-Pad27)*%
X72370000Y-52995000D03*
%TO.P,U1,28,IO17*%
%TO.N,unconnected-(U1-IO17-Pad28)*%
X72370000Y-54265000D03*
%TO.P,U1,29,IO5*%
%TO.N,/TRIG*%
X72370000Y-55535000D03*
%TO.P,U1,30,IO18*%
%TO.N,/ECHO*%
X72370000Y-56805000D03*
%TO.P,U1,31,IO19*%
%TO.N,unconnected-(U1-IO19-Pad31)*%
X72370000Y-58075000D03*
%TO.P,U1,32,NC*%
%TO.N,unconnected-(U1-NC-Pad32)*%
X72370000Y-59345000D03*
%TO.P,U1,33,IO21*%
%TO.N,unconnected-(U1-IO21-Pad33)*%
X72370000Y-60615000D03*
%TO.P,U1,34,RXD0/IO3*%
%TO.N,unconnected-(U1-RXD0{slash}IO3-Pad34)*%
X72370000Y-61885000D03*
%TO.P,U1,35,TXD0/IO1*%
%TO.N,unconnected-(U1-TXD0{slash}IO1-Pad35)*%
X72370000Y-63155000D03*
%TO.P,U1,36,IO22*%
%TO.N,unconnected-(U1-IO22-Pad36)*%
X72370000Y-64425000D03*
%TO.P,U1,37,IO23*%
%TO.N,unconnected-(U1-IO23-Pad37)*%
X72370000Y-65695000D03*
%TO.P,U1,38,GND*%
%TO.N,GND*%
X72370000Y-66965000D03*
D12*
%TO.P,U1,39,GND*%
X83325000Y-61150000D03*
D13*
X83325000Y-60387500D03*
D12*
X83325000Y-59625000D03*
D13*
X83325000Y-58862500D03*
D12*
X83325000Y-58100000D03*
D13*
X82562500Y-61150000D03*
X82562500Y-59625000D03*
X82562500Y-58100000D03*
D12*
X81800000Y-61150000D03*
D13*
X81800000Y-60387500D03*
D12*
X81800000Y-59625000D03*
D14*
X81800000Y-59625000D03*
D13*
X81800000Y-58862500D03*
D12*
X81800000Y-58100000D03*
D13*
X81037500Y-61150000D03*
X81037500Y-59625000D03*
X81037500Y-58100000D03*
D12*
X80275000Y-61150000D03*
D13*
X80275000Y-60387500D03*
D12*
X80275000Y-59625000D03*
D13*
X80275000Y-58862500D03*
D12*
X80275000Y-58100000D03*
%TD*%
D15*
%TO.P,BZ1,1,+*%
%TO.N,/BUZZER*%
X99770000Y-61695000D03*
D16*
%TO.P,BZ1,2,-*%
%TO.N,GND*%
X99770000Y-54095000D03*
%TD*%
D17*
%TO.P,U2,1,VCC*%
%TO.N,GND*%
X85610000Y-41700000D03*
%TO.P,U2,4,GND*%
%TO.N,+5V*%
X77990000Y-41700000D03*
%TO.P,U2,3,ECHO*%
%TO.N,/TRIG*%
X80530000Y-41700000D03*
%TO.P,U2,2,TRIG*%
%TO.N,/ECHO*%
X83070000Y-41700000D03*
%TD*%
D18*
%TO.N,GND*%
X93260000Y-54820000D02*
X99045000Y-54820000D01*
X99045000Y-54820000D02*
X99770000Y-54095000D01*
X93240000Y-54800000D02*
X93260000Y-54820000D01*
X93240000Y-66965000D02*
X93240000Y-54800000D01*
X89870000Y-66965000D02*
X93240000Y-66965000D01*
%TO.N,+5V*%
X94920000Y-62932000D02*
X94984000Y-62996000D01*
X94920000Y-59080000D02*
X94920000Y-62932000D01*
X94970000Y-59030000D02*
X94920000Y-59080000D01*
X103690000Y-59030000D02*
X94970000Y-59030000D01*
X103700000Y-59020000D02*
X103690000Y-59030000D01*
X103700000Y-54280000D02*
X103700000Y-59020000D01*
X77990000Y-38510000D02*
X77990000Y-41700000D01*
X110051000Y-38510000D02*
X77990000Y-38510000D01*
X110051000Y-61861100D02*
X110051000Y-38510000D01*
X108916100Y-62996000D02*
X110051000Y-61861100D01*
X93268900Y-52794000D02*
X102214000Y-52794000D01*
X94984000Y-62996000D02*
X108916100Y-62996000D01*
X92134000Y-53928900D02*
X93268900Y-52794000D01*
X102214000Y-52794000D02*
X103700000Y-54280000D01*
X92134000Y-64381000D02*
X92134000Y-53928900D01*
X90820000Y-65695000D02*
X92134000Y-64381000D01*
X89870000Y-65695000D02*
X90820000Y-65695000D01*
%TO.N,/BUZZER*%
X85560000Y-48255000D02*
X85560000Y-49205000D01*
X84537000Y-47232000D02*
X85560000Y-48255000D01*
X84537000Y-41265448D02*
X84537000Y-47232000D01*
X86057552Y-40640000D02*
X86051552Y-40634000D01*
X86051552Y-40634000D02*
X85168448Y-40634000D01*
X107890000Y-40640000D02*
X86057552Y-40640000D01*
X107890000Y-61730000D02*
X107890000Y-40640000D01*
X107855000Y-61695000D02*
X107890000Y-61730000D01*
X99770000Y-61695000D02*
X107855000Y-61695000D01*
X85168448Y-40634000D02*
X84537000Y-41265448D01*
%TO.N,GND*%
X86830000Y-55357500D02*
X86830000Y-49205000D01*
X83325000Y-58862500D02*
X86830000Y-55357500D01*
%TO.N,/BUZZER*%
X85560000Y-49205000D02*
X85560000Y-49737000D01*
%TO.N,GND*%
X89140000Y-66965000D02*
X83325000Y-61150000D01*
X89870000Y-66965000D02*
X89140000Y-66965000D01*
X72902000Y-66965000D02*
X72370000Y-66965000D01*
X80275000Y-60387500D02*
X79479500Y-60387500D01*
X79479500Y-60387500D02*
X72902000Y-66965000D01*
%TO.N,/ECHO*%
X82370000Y-45380000D02*
X82370000Y-42400000D01*
X82370000Y-42400000D02*
X83070000Y-41700000D01*
X70240000Y-46380000D02*
X71210000Y-45410000D01*
X71210000Y-45410000D02*
X82400000Y-45410000D01*
X82400000Y-45410000D02*
X82370000Y-45380000D01*
X70240000Y-56805000D02*
X70240000Y-46380000D01*
X72370000Y-56805000D02*
X70240000Y-56805000D01*
%TO.N,/TRIG*%
X81596000Y-40634000D02*
X80530000Y-41700000D01*
X83511552Y-40634000D02*
X81596000Y-40634000D01*
X84136000Y-41258448D02*
X83511552Y-40634000D01*
X84136000Y-45681100D02*
X84136000Y-41258448D01*
X83266100Y-46551000D02*
X84136000Y-45681100D01*
X76090000Y-46551000D02*
X83266100Y-46551000D01*
X73421000Y-49220000D02*
X76090000Y-46551000D01*
X73421000Y-55016000D02*
X73421000Y-49220000D01*
X72902000Y-55535000D02*
X73421000Y-55016000D01*
X72370000Y-55535000D02*
X72902000Y-55535000D01*
%TO.N,GND*%
X85610000Y-44170000D02*
X85610000Y-41700000D01*
X85625000Y-44155000D02*
X85610000Y-44170000D01*
X86830000Y-49205000D02*
X86830000Y-45360000D01*
X86830000Y-45360000D02*
X85625000Y-44155000D01*
%TD*%
M02*
